<svg width="32" height="32" viewBox="0 0 32 32" fill="none" xmlns="http://www.w3.org/2000/svg">
<path d="M17.3557 23.8555V8H32L30.306 11.4354H20.813V14.2101H28.8035L27.1095 17.6455H20.813V23.8555H17.3557Z" fill="white"/>
<path d="M3.25919 23.8555C2.67195 23.8555 2.12875 23.7087 1.6296 23.4151C1.13044 23.1215 0.734053 22.7251 0.440432 22.2259C0.146811 21.7268 0 21.1836 0 20.5963V18.5483H3.41335V20.759H11.043V8H14.5004V20.5963C14.5004 21.1836 14.3462 21.7268 14.0379 22.2259C13.7443 22.7251 13.3479 23.1215 12.8487 23.4151C12.3643 23.7087 11.8284 23.8555 11.2412 23.8555H3.25919Z" fill="white"/>
</svg>
